<svg width="24" height="24" viewBox="0 0 24 24" fill="none" xmlns="http://www.w3.org/2000/svg">
<path fill-rule="evenodd" clip-rule="evenodd" d="M9.83508 20.8831C10.475 21.5094 11.2321 21.8128 11.7447 21.9574C12.3735 22.1629 12.9314 21.9731 13.3125 21.7221C13.6822 21.4787 13.9469 21.1457 14.1063 20.8924C14.2708 20.631 14.3236 20.3547 14.3264 20.1258L14.3622 17.2158L17.3288 13.4664C17.6776 13.0256 17.9114 12.5091 18.0143 11.963L18.0295 11.8823L18.0305 11.8002L18.0739 8.26928L18.0739 8.26928V8.25771L18.0739 4.24461C18.0739 3.04149 17.1065 2.06206 15.9034 2.04727L8.47068 1.95592C5.35448 1.91762 3.84809 3.78589 3.48091 4.98075C2.80314 6.80605 2.33018 9.25769 2.03829 11.2225C1.73458 13.2668 3.34346 14.9974 5.33918 15.0219L8.80127 15.0644C8.80589 15.0697 8.81076 15.0756 8.81575 15.0822C8.82674 15.0967 8.83674 15.1125 8.84509 15.1284C8.85348 15.1444 8.859 15.1583 8.86231 15.1687L8.86304 15.1711C8.76873 15.86 8.69848 16.7842 8.68469 17.9065C8.66821 19.2473 9.15742 20.2197 9.83508 20.8831ZM12.4801 17.0856L12.4445 19.985C12.429 20.0046 12.4126 20.0241 12.3955 20.0429C12.3493 20.0936 12.308 20.1283 12.2767 20.1489L12.2752 20.1499L12.2721 20.1491C11.9315 20.055 11.4927 19.8699 11.1527 19.537C10.8396 19.2305 10.558 18.7515 10.5681 17.9296C10.5814 16.8528 10.6494 15.9991 10.7327 15.4013C10.8111 14.8385 10.5918 14.3076 10.3175 13.9452C10.0472 13.5882 9.56336 13.1901 8.91693 13.1822L5.36232 13.1385C4.43621 13.1271 3.77573 12.3453 3.90141 11.4993C4.19077 9.55152 4.64488 7.24565 5.25626 5.61071L5.26857 5.57779L5.27839 5.54404C5.40169 5.12041 6.18924 3.8116 8.44754 3.83935L15.8803 3.9307C16.0522 3.93281 16.1904 4.07273 16.1904 4.24461V8.25192L16.1482 11.6853C16.0956 11.9072 15.995 12.1165 15.8517 12.2977L12.8187 16.131C12.6034 16.403 12.4844 16.7388 12.4801 17.0856ZM20.8712 12.3766C21.494 12.3766 21.9988 11.8718 21.9988 11.2491V4.18968C21.9988 3.56694 21.494 3.06212 20.8712 3.06212C20.2485 3.06212 19.7437 3.56694 19.7437 4.18968V11.2491C19.7437 11.8718 20.2485 12.3766 20.8712 12.3766Z" fill="#200E32" fill-opacity="0.26"/>
</svg>
