<svg width="20" height="22" viewBox="0 0 20 22" fill="none" xmlns="http://www.w3.org/2000/svg">
<path fill-rule="evenodd" clip-rule="evenodd" d="M12.1657 2.11641C11.5258 1.49003 10.7686 1.18661 10.256 1.04197C9.62712 0.836484 9.06921 1.02634 8.68806 1.27731C8.31838 1.52073 8.05365 1.85374 7.89421 2.10705C7.7297 2.36845 7.67689 2.64477 7.67408 2.8737L7.63831 5.78389L4.67155 9.5335C4.3224 9.97477 4.08843 10.492 3.98571 11.0387L3.9706 11.1192L3.96959 11.201L3.92642 14.7135L3.92635 14.7135V14.7251L3.92635 18.7559C3.92635 19.9591 4.89388 20.9386 6.09698 20.9533L13.5302 21.0447C16.6466 21.083 18.1531 19.2146 18.5203 18.0197C19.1981 16.1943 19.6711 13.7425 19.963 11.7776C20.2667 9.7331 18.6577 8.00246 16.6619 7.97793L13.1996 7.93537C13.195 7.93015 13.1901 7.92425 13.1851 7.91766C13.1741 7.90315 13.1641 7.88736 13.1558 7.8714C13.1474 7.85538 13.1419 7.8415 13.1385 7.83108L13.1378 7.82873C13.2321 7.13981 13.3024 6.21552 13.3162 5.09318C13.3327 3.75229 12.8434 2.77977 12.1657 2.11641ZM9.52054 5.91405L9.55618 3.01455C9.57162 2.99493 9.58802 2.97545 9.60515 2.95663C9.6513 2.90595 9.69267 2.87119 9.72399 2.85056L9.72549 2.84958L9.72855 2.85043C10.0692 2.94456 10.508 3.12963 10.8481 3.46254C11.1612 3.76901 11.4427 4.24809 11.4326 5.07003C11.4194 6.14694 11.3513 7.0007 11.268 7.59853C11.1897 8.16136 11.4089 8.6923 11.6833 9.05469C11.9536 9.41171 12.4374 9.80984 13.0839 9.81778L16.6387 9.86147C17.5649 9.87285 18.2254 10.6547 18.0997 11.5008C17.8104 13.4486 17.3562 15.7547 16.7448 17.3897L16.7325 17.4226L16.7227 17.4564C16.5994 17.88 15.8118 19.1889 13.5533 19.1612L6.12013 19.0698C5.94826 19.0677 5.81004 18.9278 5.81004 18.7559V14.7309L5.85201 11.3157C5.90449 11.0934 6.00522 10.8837 6.14876 10.7023L9.18194 6.86876C9.39721 6.59669 9.51628 6.26096 9.52054 5.91405ZM1.12787 10.6227C0.5051 10.6227 0.000244141 11.1276 0.000244141 11.7503V18.8102C0.000244141 19.4329 0.5051 19.9378 1.12787 19.9378C1.75064 19.9378 2.2555 19.4329 2.2555 18.8102V11.7503C2.2555 11.1276 1.75064 10.6227 1.12787 10.6227Z" fill="#200E32" fill-opacity="0.26"/>
</svg>
